<?xml version="1.0" encoding="UTF-8"?>
<svg width="24px" height="24px" viewBox="0 0 24 24" stroke-width="1.5" stroke="currentColor" fill="none" stroke-linecap="round" stroke-linejoin="round" xmlns="http://www.w3.org/2000/svg">
  <path d="M6 7c0 -1.105 .893 -2 2.001 -2c1.114 0 2.001 .89 2.001 2c0 1.105 -.893 2 -2.001 2a2.012 2.012 0 0 1 -2.001 -2z" />
  <path d="M6 17c0 -1.105 .893 -2 2.001 -2c1.114 0 2.001 .89 2.001 2c0 1.105 -.893 2 -2.001 2a2.012 2.012 0 0 1 -2.001 -2z" />
  <path d="M9 8l7 8" />
  <path d="M9 16l7 -8" />
</svg>